<svg width="94" height="46" viewBox="0 0 94 46" fill="none" xmlns="http://www.w3.org/2000/svg">
<path d="M12.51 22.91L9.21 12.95L7.44 12.35C8.67 12.29 9.81 11.81 10.71 10.97C11.88 9.95 12.51 8.48 12.51 6.92C12.51 5.36 11.88 3.89 10.71 2.87C9.75 1.97 8.49 1.49 7.17 1.46H1.05V1.58H1.71V22.91H1.05V23H4.26V22.91H3.6L3.63 15.95C3.63 14 5.19 12.41 7.14 12.38L10.62 22.91H9.96V23H13.2V22.91H12.51ZM7.17 12.29C5.4 12.29 3.93 13.55 3.6 15.26V1.58H7.17C8.01 1.58 8.82 1.91 9.45 2.48C10.2 3.14 10.62 4.07 10.65 5.06V8.78C10.62 9.77 10.2 10.7 9.45 11.36C8.82 11.93 8.01 12.29 7.17 12.29ZM29.3276 14L29.2976 13.94C29.0276 12.86 28.4876 11.87 27.7676 11.06C27.1076 10.31 26.2976 9.71 25.3976 9.29C24.4976 8.87 23.5076 8.63 22.4876 8.63H22.4276C21.4076 8.63 20.3876 8.84 19.4576 9.29C18.5576 9.71 17.7776 10.31 17.1176 11.06C15.9476 12.38 15.3176 14.06 15.3176 15.83C15.3176 17.57 15.9476 19.25 17.1176 20.57C17.7776 21.32 18.5576 21.92 19.4576 22.34C20.3876 22.79 21.4076 23 22.4276 23H22.4876C23.5076 23 24.4976 22.76 25.3976 22.34C26.2976 21.92 27.1076 21.32 27.7676 20.57C28.0976 20.18 28.4276 19.73 28.6676 19.28C29.2976 18.14 29.2676 16.79 28.6376 15.68C28.1276 14.81 27.3176 14.21 26.3876 14H29.3276ZM28.5476 15.74C29.1776 16.82 29.1776 18.14 28.5776 19.22C28.3376 19.7 28.0376 20.12 27.6776 20.51C27.0176 21.26 26.2376 21.83 25.3676 22.25C24.4376 22.67 23.4476 22.91 22.4276 22.91C21.0476 22.88 19.7276 22.34 18.7376 21.35C17.7776 20.39 17.2076 19.07 17.1776 17.69V14H25.6676C26.8676 14.03 27.9476 14.69 28.5476 15.74ZM17.1776 13.88C17.2376 12.53 17.7776 11.24 18.7376 10.28C19.7276 9.29 21.0476 8.72 22.4276 8.72C23.8076 8.75 25.1276 9.29 26.1176 10.28C27.0776 11.24 27.6476 12.53 27.6776 13.88H17.1776ZM41.1502 22.91V13.1C41.1502 12.41 40.9702 11.72 40.6402 11.09C40.3402 10.49 39.8902 9.95 39.3502 9.53C38.5702 8.96 37.6402 8.66 36.6802 8.63C36.6802 8.63 36.6502 8.63 36.6202 8.63C35.6902 8.63 34.7602 8.93 34.0102 9.47V8.63H31.4602V8.72H32.1202V22.91H31.4602V23H34.6702V22.91H34.0102V9.59C34.7602 9.05 35.6602 8.75 36.6202 8.75C36.6502 8.75 36.6802 8.75 36.6802 8.75C37.2502 8.75 37.7602 8.93 38.2102 9.26C38.8402 9.74 39.2302 10.49 39.2602 11.3V11.45V22.91H38.6002V23H41.8102V22.91H41.1502ZM54.8306 22.91V13.13C54.8306 12.41 54.6806 11.72 54.3506 11.09C54.0206 10.46 53.5706 9.92 53.0306 9.53C52.2506 8.93 51.3506 8.63 50.3906 8.63C50.3906 8.63 50.3306 8.63 50.3006 8.63C49.3406 8.63 48.3806 8.93 47.6006 9.53C47.0606 9.92 46.6106 10.46 46.2806 11.09C45.9506 11.72 45.8006 12.41 45.8006 13.13C45.8006 13.67 45.8906 14.18 46.0706 14.66C45.9506 14.72 45.8306 14.81 45.7406 14.87C45.1706 15.29 44.7206 15.83 44.4206 16.43C44.0906 17.09 43.9406 17.78 43.9406 18.5C43.9406 19.22 44.0906 19.91 44.4206 20.54C44.7206 21.17 45.1706 21.71 45.7406 22.1C46.4906 22.7 47.4206 23 48.3806 23C48.4106 23 48.4106 23 48.4406 23C49.4606 23 50.3906 22.7 51.2006 22.1C51.7706 21.68 52.2206 21.14 52.5506 20.51C52.7306 20.15 52.8506 19.76 52.9406 19.37V23H55.4906V22.91H54.8306ZM52.9406 16.67V18.41C52.9406 19.13 52.7906 19.82 52.4606 20.45C52.1306 21.08 51.6806 21.59 51.1406 22.01C50.3606 22.61 49.4306 22.91 48.4406 22.91C48.4106 22.91 48.4106 22.91 48.3806 22.91C47.8406 22.91 47.3006 22.73 46.8506 22.4C46.2206 21.89 45.8306 21.17 45.8006 20.36C45.8006 20.33 45.8006 20.3 45.8006 20.27C45.8006 20.27 45.8006 20.24 45.8006 20.21V16.79C45.8006 16.76 45.8006 16.73 45.8006 16.7C45.8006 16.7 45.8006 16.67 45.8006 16.64C45.8306 15.83 46.2206 15.08 46.8506 14.6C47.3006 14.27 47.8406 14.09 48.3806 14.09H50.3006C50.9006 14.09 51.4706 13.88 51.9506 13.52C52.4306 13.16 52.7906 12.65 52.9406 12.08V16.67ZM52.9406 11.42C52.9106 12.23 52.5506 12.98 51.8906 13.46C51.4406 13.79 50.9006 13.97 50.3006 13.97H48.3806C47.6006 14 46.8206 14.21 46.1606 14.6C45.9806 14.12 45.8906 13.64 45.8906 13.13C45.8906 12.44 46.0706 11.75 46.3706 11.12C46.6706 10.52 47.1206 10.01 47.6606 9.59C48.4406 9.02 49.3406 8.72 50.3006 8.72C50.3306 8.72 50.3606 8.72 50.3606 8.72C50.9306 8.72 51.4406 8.9 51.8906 9.23C52.5506 9.74 52.9106 10.46 52.9406 11.27V11.42ZM65.5123 8.63H58.4023V8.6C59.1823 8.6 59.8423 8.09 60.0823 7.37C60.0823 7.31 60.1123 7.28 60.1123 7.22C60.1723 7.07 60.1723 6.95 60.1723 6.8V1.43L57.6223 2.6L57.6523 2.69L58.2823 2.39V8.63H57.6223V8.72H58.2823V18.5V18.56C58.2823 19.25 58.4623 19.91 58.7923 20.54C59.0923 21.17 59.5423 21.71 60.0823 22.1C60.8623 22.7 61.7923 23 62.7523 23C62.7523 23 62.7823 23 62.8123 23C63.8023 23 64.7323 22.7 65.5123 22.1L65.4523 22.04C64.7023 22.61 63.7723 22.91 62.8123 22.91C62.7823 22.91 62.7823 22.91 62.7523 22.91C62.1823 22.91 61.6723 22.73 61.2223 22.4C60.5923 21.89 60.2023 21.17 60.1723 20.36C60.1723 20.33 60.1723 8.72 60.1723 8.72H65.5123V8.63ZM77.4771 22.91V13.13C77.4771 12.41 77.3271 11.72 76.9971 11.09C76.6671 10.46 76.2171 9.92 75.6771 9.53C74.8971 8.93 73.9971 8.63 73.0371 8.63C73.0371 8.63 72.9771 8.63 72.9471 8.63C71.9871 8.63 71.0271 8.93 70.2471 9.53C69.7071 9.92 69.2571 10.46 68.9271 11.09C68.5971 11.72 68.4471 12.41 68.4471 13.13C68.4471 13.67 68.5371 14.18 68.7171 14.66C68.5971 14.72 68.4771 14.81 68.3871 14.87C67.8171 15.29 67.3671 15.83 67.0671 16.43C66.7371 17.09 66.5871 17.78 66.5871 18.5C66.5871 19.22 66.7371 19.91 67.0671 20.54C67.3671 21.17 67.8171 21.71 68.3871 22.1C69.1371 22.7 70.0671 23 71.0271 23C71.0571 23 71.0571 23 71.0871 23C72.1071 23 73.0371 22.7 73.8471 22.1C74.4171 21.68 74.8671 21.14 75.1971 20.51C75.3771 20.15 75.4971 19.76 75.5871 19.37V23H78.1371V22.91H77.4771ZM75.5871 16.67V18.41C75.5871 19.13 75.4371 19.82 75.1071 20.45C74.7771 21.08 74.3271 21.59 73.7871 22.01C73.0071 22.61 72.0771 22.91 71.0871 22.91C71.0571 22.91 71.0571 22.91 71.0271 22.91C70.4871 22.91 69.9471 22.73 69.4971 22.4C68.8671 21.89 68.4771 21.17 68.4471 20.36C68.4471 20.33 68.4471 20.3 68.4471 20.27C68.4471 20.27 68.4471 20.24 68.4471 20.21V16.79C68.4471 16.76 68.4471 16.73 68.4471 16.7C68.4471 16.7 68.4471 16.67 68.4471 16.64C68.4771 15.83 68.8671 15.08 69.4971 14.6C69.9471 14.27 70.4871 14.09 71.0271 14.09H72.9471C73.5471 14.09 74.1171 13.88 74.5971 13.52C75.0771 13.16 75.4371 12.65 75.5871 12.08V16.67ZM75.5871 11.42C75.5571 12.23 75.1971 12.98 74.5371 13.46C74.0871 13.79 73.5471 13.97 72.9471 13.97H71.0271C70.2471 14 69.4671 14.21 68.8071 14.6C68.6271 14.12 68.5371 13.64 68.5371 13.13C68.5371 12.44 68.7171 11.75 69.0171 11.12C69.3171 10.52 69.7671 10.01 70.3071 9.59C71.0871 9.02 71.9871 8.72 72.9471 8.72C72.9771 8.72 73.0071 8.72 73.0071 8.72C73.5771 8.72 74.0871 8.9 74.5371 9.23C75.1971 9.74 75.5571 10.46 75.5871 11.27V11.42Z" fill="#FAFAFA"/>
<path d="M65.25 37.91H59.97L68.55 16.46H58.05V19.94H58.17C58.17 18.14 59.55 16.67 61.32 16.58H66.6L58.05 38H68.52V34.55H68.43C68.43 36.35 67.02 37.82 65.25 37.91ZM73.677 37.91V23.6L71.127 24.74L71.157 24.83L71.787 24.56V37.91H71.127V38H74.337V37.91H73.677ZM72.747 21.05C73.257 21.05 73.677 20.6 73.677 20.09C73.677 19.58 73.257 19.16 72.747 19.16C72.207 19.16 71.787 19.58 71.787 20.09C71.787 20.6 72.207 21.05 72.747 21.05ZM90.1772 26.06C89.5172 25.31 88.7072 24.71 87.8072 24.29C86.8772 23.84 85.8872 23.63 84.8372 23.63C84.8072 23.63 84.7772 23.63 84.7772 23.63C83.3072 23.63 81.9572 24.17 80.9372 25.19C80.1572 25.97 79.6472 26.93 79.4672 27.98V23.63H76.9172V23.72H77.5772V45.05H76.9172V45.17H80.1272V45.05H79.4672V33.65C79.6472 34.7 80.1572 35.66 80.9372 36.44C81.9572 37.46 83.3072 38 84.7772 38C84.7772 38 84.8072 38 84.8372 38C85.8872 38 86.8772 37.79 87.8072 37.34C88.7072 36.92 89.5172 36.32 90.1772 35.57C91.3172 34.25 91.9772 32.57 91.9772 30.83C91.9772 29.06 91.3172 27.38 90.1772 26.06ZM90.0872 32.69C90.0572 34.07 89.5172 35.39 88.5272 36.35C87.5372 37.34 86.2172 37.91 84.8372 37.91C84.8072 37.91 84.7772 37.91 84.7772 37.91C81.8672 37.91 79.4972 35.57 79.4672 32.66V28.97C79.4972 26.06 81.8672 23.72 84.7772 23.72C84.7772 23.72 84.8072 23.72 84.8372 23.72C86.2172 23.72 87.5372 24.29 88.5272 25.28C89.5172 26.24 90.0572 27.56 90.0872 28.94V32.69Z" fill="#FAFAFA"/>
</svg>
