<svg width="64" height="64" viewBox="0 0 64 64" fill="none" xmlns="http://www.w3.org/2000/svg">
<path d="M62 23H39.1L32 2L24.9 23H2L20.5 36L13.4 57L32 44L50.5 57L43.4 36L62 23Z" fill="#FBE8B0"/>
<path d="M46.2 20.3L50.2 8.90002L39.7 16.1L41.2 20.3H46.2Z" fill="#FBE8B0"/>
<path d="M27.9 50L32 62L36.1 50L32 47.2L27.9 50Z" fill="#FBE8B0"/>
<path d="M50.7 34.3L46.9 36.9001L48.5 41.7001H61.4L50.7 34.3Z" fill="#FBE8B0"/>
<path d="M24.3 16.1L13.8 8.90002L17.8 20.3H22.8L24.3 16.1Z" fill="#FBE8B0"/>
<path d="M13.3 34.3L2.59998 41.7001H15.5L17.1 36.9001L13.3 34.3Z" fill="#FBE8B0"/>
</svg>
